<svg width="1193" height="389" viewBox="0 0 1193 389" fill="none" xmlns="http://www.w3.org/2000/svg">
<g filter="url(#filter0_bd_845_16641)">
<rect x="15" y="11" width="1163" height="359" rx="30" fill="url(#paint0_linear_845_16641)" shape-rendering="crispEdges"/>
<path d="M268.882 96.8625V261.982C268.882 270.916 261.641 278.157 252.708 278.157H236.005C224.427 287.065 203.424 293.021 179.439 293.021C155.454 293.021 134.455 287.065 122.877 278.157H106.17C97.2408 278.157 90 270.916 90 261.982V96.8625C90 87.9332 97.2408 80.6924 106.17 80.6924H252.708C261.645 80.6924 268.882 87.929 268.882 96.8625Z" fill="#153D1F"/>
<path d="M238.002 137.579C238.002 137.579 232.478 144.429 242.938 153.188C253.398 161.947 255.361 169.433 251.435 175.592C251.435 175.592 254.197 168.688 249.31 162.159C249.31 162.159 256.426 173.309 243.046 186.688C234.337 194.757 223.191 184.351 223.191 184.351C223.191 184.351 231.21 186.58 240.659 182.97C250.108 179.36 248.411 171.504 245.758 168.368C243.105 165.236 233.547 156.369 233.173 149.095C233.173 149.095 234.978 154.194 237.702 156.386C237.702 156.394 228.39 145.277 238.002 137.579Z" fill="#132818"/>
<path d="M221.348 152.535C214.199 147.718 218.57 144.429 218.57 144.429C218.57 144.429 210.235 145.527 216.607 155.65C216.607 155.65 214.64 155.417 213.579 150.426C213.579 150.426 212.835 154.889 215.808 157.118C215.808 157.118 212.074 160.815 210.377 168.035C208.676 175.259 218.516 176.32 218.516 176.32C218.516 176.32 215.259 180.142 208.817 178.586C204.783 177.522 201.456 171.079 200.537 168.463C199.617 165.843 195.933 159.684 188.43 158.482C180.927 157.276 164.362 168.888 158.697 172.71C153.037 176.532 135.162 187.857 117.003 183.61C106.119 180.533 106.49 170.339 106.598 168.534C106.702 166.725 110.42 147.506 137.071 155.259L137.424 153.633C137.424 153.633 120.838 145.56 108.91 156.831C106.618 158.998 104.905 161.693 103.969 164.704C102.509 169.395 101.582 177.197 107.87 184.035C117.465 194.461 133.814 187.686 134.4 187.441C134.126 187.636 130.038 190.423 121.886 190.83C121.886 190.83 138.169 194.44 162.095 180.142C180.998 167.831 186.874 167.328 186.874 167.328C186.874 167.328 192.393 165.985 196.856 173.841C201.314 181.697 205.669 185.948 211.932 184.53C218.2 183.116 221.277 178.516 221.985 177.027L231.188 178.586C231.188 178.586 234.021 174.477 234.798 166.762C234.94 159.118 228.497 157.347 221.348 152.535ZM221.772 169.241C221.772 169.241 215.825 168.505 213.438 166.118C213.267 165.947 213.155 165.731 213.093 165.498C212.914 164.849 213.188 164.163 213.766 163.822C215.01 163.09 217.717 162.109 219.543 163.115C222.234 164.604 221.772 169.241 221.772 169.241ZM224.534 170.198L225.632 163.826C225.632 163.826 231.683 166.904 231.791 171.645L224.534 170.198Z" fill="#132818"/>
<path d="M183.086 103.404C183.086 103.404 183.015 99.2619 186.592 96.571C190.168 93.8802 191.034 99.6404 188.255 102.643C188.255 102.643 189.353 98.1473 188.131 97.3155C186.908 96.4837 184.82 100.006 186.492 103.899C188.164 107.792 191.899 112.641 195.509 115.865C199.119 119.088 206.73 126.64 209.329 134.077C210.481 136.926 210.905 139.546 210.693 141.634C210.693 141.634 209.029 134.555 206.268 131.157C206.268 131.157 211.188 141.031 210.443 148.043C209.699 155.051 203.278 160.786 195.471 158.502C187.665 156.219 185.207 142.644 195.933 136.435C195.933 136.435 183.955 149.889 195.787 157.005C198.137 158.419 201.165 158.257 203.24 156.469C206.838 153.37 209.94 146.238 203.011 134.913C203.011 134.913 197.488 125.78 188.713 117.853C179.933 109.926 182.466 101.537 182.466 101.537C182.466 101.537 182.096 108.582 184.924 112.155C184.924 112.146 182.982 107.276 183.086 103.404Z" fill="#132818"/>
<path d="M192.014 101.184C192.068 100.722 192.218 100.277 192.451 99.8735C193.025 98.8878 194.148 97.2616 194.593 98.6341C195.204 100.518 193.715 101.075 193 101.662C192.576 102.061 192.335 103.704 193.878 102.801C195.416 101.899 198.577 101.529 196.161 106.52C194.169 110.795 191.49 109.493 191.49 109.493C191.49 109.493 194.223 108.166 195.1 105.883C195.1 105.883 191.395 107.368 191.781 103.388C191.885 102.34 191.964 101.633 192.014 101.184Z" fill="#132818"/>
<path d="M167.75 134.198C149.513 159.626 146.045 139.492 146.045 139.492L145.991 138.324L145.3 138.166C145.126 138.228 144.955 138.295 144.789 138.361C140.958 139.904 138.484 143.668 138.4 147.794L138.346 150.36C136.541 174.661 112.012 173.895 112.012 173.895C116.47 176.179 124.489 173.151 124.489 173.151C121.623 175.276 117.356 175.754 117.356 175.754C141.99 177.738 140.684 159.031 141.108 152.606C141.532 146.18 146.153 144.749 146.153 144.749C146.153 144.749 149.339 155.313 157.407 151.387C172.858 141.563 171.901 133.337 170.416 128.82C169.813 126.986 168.208 126.263 166.519 126.05C163.105 125.622 159.803 127.385 158.031 130.338C155.086 135.233 152.612 143.784 155.34 152.077C159.378 164.346 176.405 149.848 176.405 149.848L195.582 132.089L190.567 134.264L195.582 130.921V128.113C191.902 129.669 188.504 127.972 187.938 127.831C187.373 127.689 181.213 122.449 178.805 126.129C175.407 131.012 176.609 140.428 176.609 140.428L178.805 157.101L179.441 156.112L178.593 140.291C178.593 140.291 178.044 134.24 180.656 131.744C181.858 130.417 186.982 133.524 186.982 133.524C186.982 133.524 166.769 156.078 158.135 151.973C158.135 151.973 153.107 145.885 158.559 136.327C161.761 131.303 165.629 131.898 167.181 132.405C167.601 132.543 167.904 132.913 167.963 133.354C168 133.645 167.925 133.953 167.75 134.198Z" fill="#132818"/>
<path d="M141.982 155.126C141.982 155.126 154.168 160.994 157.778 169.965C157.778 169.965 151.885 162.425 141.982 156.956V155.126Z" fill="#132818"/>
<path d="M148.404 129.061C146.653 131.611 144.507 134.447 142.914 132.642C140.656 129.639 138.93 130.596 138.93 130.596C139.816 129.265 140.884 127.98 141.916 127.173C144.029 127.826 145.422 129.227 145.53 129.34C144.411 127.597 143.097 127.056 142.303 126.853C143.434 126.162 144.657 126.096 145.276 127.41C146.516 130.043 148.308 129.111 148.404 129.061Z" fill="#132818"/>
<path d="M180.117 116.992C178.366 119.541 176.22 122.378 174.627 120.573C172.369 117.57 170.643 118.526 170.643 118.526C171.528 117.196 172.597 115.91 173.629 115.104C175.741 115.757 177.135 117.158 177.243 117.27C176.124 115.528 174.81 114.987 174.016 114.783C175.147 114.093 176.369 114.026 176.989 115.341C178.229 117.973 180.021 117.042 180.117 116.992Z" fill="#132818"/>
<path d="M189.71 187.324C189.565 187.283 186.537 186.397 182.757 189.504C178.885 192.69 176.281 191.841 174.397 189.928C174.385 189.915 174.372 189.903 174.355 189.886C178.926 189.94 182.07 186.16 182.07 186.16C176.339 190.261 173.016 188.485 171.902 187.595C171.764 187.466 171.623 187.333 171.482 187.2C171.477 187.195 171.477 187.195 171.477 187.195C169.257 185.087 166.803 182.463 166.803 180.479C166.803 180.479 169.248 184.912 173.549 181.884C177.849 178.861 182.12 176.203 185.439 179.892C188.683 183.502 189.669 187.154 189.71 187.324Z" fill="#132818"/>
<path d="M226.851 129.032C226.851 129.032 218.983 140.32 224.318 143.543C228.893 146.304 228.885 137.138 228.885 137.138C228.885 137.138 227.7 140.661 224.938 139.704C222.181 138.748 226.851 129.032 226.851 129.032Z" fill="#132818"/>
<path d="M112.217 136.494H113.839V140.844H115.074V136.494H116.7V135.346H112.217V136.494Z" fill="#132818"/>
<path d="M121.858 135.346L120.211 138.548L118.556 135.346H117.25V140.844H118.423V137.587L119.82 140.312H120.598L121.983 137.592L121.987 140.844H123.16V135.346H121.858Z" fill="#132818"/>
<path d="M237.187 136.765C237.187 136.765 231.664 143.614 242.124 152.373C252.584 161.132 254.547 168.618 250.621 174.778C250.621 174.778 253.382 167.874 248.495 161.344C248.495 161.344 255.611 172.494 242.232 185.874C233.523 193.942 222.377 183.537 222.377 183.537C222.377 183.537 230.395 185.766 239.845 182.156C249.294 178.546 247.597 170.689 244.944 167.554C242.29 164.418 232.733 155.555 232.359 148.281C232.359 148.281 234.164 153.38 236.888 155.572C236.888 155.58 227.576 144.467 237.187 136.765Z" fill="url(#paint1_linear_845_16641)"/>
<path d="M220.53 151.72C213.381 146.904 217.752 143.614 217.752 143.614C217.752 143.614 209.417 144.712 215.789 154.835C215.789 154.835 213.821 154.602 212.761 149.612C212.761 149.612 212.016 154.074 214.99 156.303C214.99 156.303 211.255 160.001 209.558 167.221C207.857 174.445 217.698 175.505 217.698 175.505C217.698 175.505 214.441 179.327 207.999 177.772C203.965 176.707 200.637 170.265 199.718 167.649C198.799 165.029 195.114 158.869 187.611 157.667C180.109 156.461 163.543 168.073 157.879 171.895C152.219 175.717 134.343 187.042 116.185 182.796C105.301 179.718 105.671 169.525 105.779 167.72C105.883 165.911 109.601 146.692 136.252 154.444L136.606 152.818C136.606 152.818 120.02 144.746 108.092 156.016C105.8 158.183 104.087 160.878 103.151 163.889C101.691 168.581 100.764 176.383 107.052 183.22C116.647 193.647 132.996 186.872 133.582 186.626C133.308 186.822 129.219 189.608 121.068 190.016C121.068 190.016 137.35 193.626 161.277 179.327C180.179 167.017 186.056 166.514 186.056 166.514C186.056 166.514 191.575 165.17 196.038 173.027C200.496 180.883 204.85 185.133 211.114 183.715C217.381 182.301 220.459 177.701 221.166 176.212L230.37 177.772C230.37 177.772 233.202 173.663 233.98 165.948C234.126 158.308 227.679 156.532 220.53 151.72ZM220.958 168.427C220.958 168.427 215.011 167.691 212.624 165.303C212.453 165.133 212.341 164.917 212.278 164.684C212.1 164.035 212.374 163.349 212.952 163.008C214.196 162.276 216.903 161.294 218.729 162.301C221.416 163.794 220.958 168.427 220.958 168.427ZM223.72 169.387L224.818 163.016C224.818 163.016 230.869 166.094 230.977 170.835L223.72 169.387Z" fill="url(#paint2_linear_845_16641)"/>
<path d="M182.271 102.59C182.271 102.59 182.201 98.4474 185.778 95.7566C189.354 93.0657 190.219 98.8259 187.441 101.829C187.441 101.829 188.539 97.3328 187.316 96.501C186.094 95.6692 184.006 99.1919 185.678 103.085C187.35 106.978 191.084 111.827 194.694 115.05C198.304 118.269 205.915 125.826 208.515 133.262C209.667 136.111 210.091 138.731 209.879 140.819C209.879 140.819 208.215 133.741 205.454 130.343C205.454 130.343 210.374 140.216 209.629 147.228C208.885 154.236 202.463 159.971 194.657 157.688C186.851 155.405 184.393 141.83 195.119 135.62C195.119 135.62 183.141 149.075 194.973 156.191C197.323 157.605 200.351 157.443 202.426 155.654C206.023 152.556 209.126 145.423 202.197 134.098C202.197 134.098 196.674 124.965 187.899 117.038C179.119 109.111 181.652 100.722 181.652 100.722C181.652 100.722 181.282 107.768 184.11 111.34C184.11 111.336 182.168 106.462 182.271 102.59Z" fill="url(#paint3_linear_845_16641)"/>
<path d="M191.2 100.369C191.254 99.9075 191.404 99.4624 191.637 99.059C192.21 98.0733 193.333 96.4472 193.778 97.8196C194.39 99.7037 192.901 100.261 192.185 100.847C191.761 101.247 191.52 102.889 193.063 101.987C194.602 101.084 197.763 100.714 195.346 105.705C193.354 109.981 190.676 108.679 190.676 108.679C190.676 108.679 193.408 107.352 194.286 105.069C194.286 105.069 190.58 106.554 190.967 102.573C191.071 101.525 191.146 100.818 191.2 100.369Z" fill="url(#paint4_linear_845_16641)"/>
<path d="M166.932 133.383C148.695 158.811 145.226 138.678 145.226 138.678L145.172 137.509L144.482 137.351C144.307 137.413 144.137 137.48 143.97 137.546C140.14 139.089 137.665 142.853 137.582 146.979L137.528 149.545C135.723 173.846 111.193 173.081 111.193 173.081C115.652 175.364 123.67 172.336 123.67 172.336C120.805 174.461 116.538 174.94 116.538 174.94C141.171 176.924 139.865 158.216 140.29 151.791C140.714 145.365 145.334 143.935 145.334 143.935C145.334 143.935 148.52 154.498 156.589 150.572C172.039 140.749 171.083 132.522 169.598 128.006C168.995 126.172 167.39 125.448 165.701 125.236C162.286 124.807 158.984 126.571 157.213 129.524C154.268 134.419 151.793 142.97 154.522 151.263C158.56 163.532 175.587 149.033 175.587 149.033L194.764 131.275L189.748 133.45L194.764 130.106V127.303C191.083 128.858 187.685 127.161 187.12 127.02C186.554 126.879 180.395 121.638 177.987 125.319C174.589 130.202 175.791 139.618 175.791 139.618L177.987 156.291L178.623 155.301L177.775 139.48C177.775 139.48 177.226 133.429 179.837 130.934C181.039 129.607 186.163 132.714 186.163 132.714C186.163 132.714 165.951 155.268 157.316 151.163C157.316 151.163 152.288 145.074 157.741 135.517C160.943 130.493 164.811 131.087 166.362 131.595C166.782 131.732 167.086 132.102 167.144 132.539C167.186 132.83 167.107 133.138 166.932 133.383Z" fill="url(#paint5_linear_845_16641)"/>
<path d="M141.168 154.315C141.168 154.315 153.354 160.184 156.964 169.155C156.964 169.155 151.071 161.614 141.168 156.145V154.315Z" fill="url(#paint6_linear_845_16641)"/>
<path d="M147.589 128.247C145.838 130.796 143.692 133.633 142.1 131.828C139.841 128.825 138.115 129.781 138.115 129.781C139.001 128.45 140.07 127.165 141.101 126.358C143.214 127.011 144.607 128.413 144.716 128.525C143.597 126.783 142.283 126.242 141.488 126.038C142.619 125.348 143.842 125.281 144.462 126.596C145.697 129.228 147.49 128.297 147.589 128.247Z" fill="url(#paint7_linear_845_16641)"/>
<path d="M179.302 116.177C177.551 118.727 175.405 121.563 173.812 119.758C171.554 116.755 169.828 117.712 169.828 117.712C170.714 116.381 171.783 115.096 172.814 114.289C174.927 114.942 176.32 116.344 176.428 116.456C175.31 114.713 173.995 114.173 173.201 113.969C174.332 113.279 175.555 113.212 176.175 114.526C177.414 117.159 179.207 116.227 179.302 116.177Z" fill="url(#paint8_linear_845_16641)"/>
<path d="M188.892 186.514C188.746 186.472 185.719 185.586 181.938 188.693C178.066 191.879 175.463 191.031 173.579 189.117C173.566 189.105 173.554 189.092 173.537 189.076C178.108 189.13 181.252 185.349 181.252 185.349C175.521 189.45 172.198 187.674 171.083 186.784C170.946 186.655 170.805 186.522 170.663 186.389C170.659 186.385 170.659 186.385 170.659 186.385C168.438 184.276 165.984 181.652 165.984 179.668C165.984 179.668 168.43 184.102 172.73 181.074C177.031 178.05 181.302 175.393 184.621 179.082C187.865 182.688 188.85 186.343 188.892 186.514Z" fill="url(#paint9_linear_845_16641)"/>
<path d="M226.037 128.217C226.037 128.217 218.168 139.504 223.504 142.727C228.079 145.489 228.071 136.323 228.071 136.323C228.071 136.323 226.885 139.845 224.124 138.889C221.366 137.932 226.037 128.217 226.037 128.217Z" fill="url(#paint10_linear_845_16641)"/>
<path d="M111.402 135.682H113.02V140.028H114.26V135.682H115.886V134.53H111.402V135.682Z" fill="url(#paint11_linear_845_16641)"/>
<path d="M121.04 134.53L119.397 137.733L117.741 134.53H116.436V140.028H117.608V136.776L119.006 139.496H119.784L121.168 136.776L121.173 140.028H122.345V134.53H121.04Z" fill="url(#paint12_linear_845_16641)"/>
<path d="M125.663 212.769C125.126 212.245 124.494 211.837 123.766 211.542C123.038 211.247 122.315 211.097 121.595 211.097C120.93 211.097 120.318 211.222 119.753 211.467C119.187 211.712 118.692 212.058 118.272 212.494C117.848 212.931 117.519 213.443 117.286 214.021C117.053 214.599 116.937 215.227 116.937 215.905C116.937 216.583 117.058 217.215 117.299 217.801C117.54 218.388 117.873 218.903 118.293 219.348C118.717 219.793 119.212 220.138 119.773 220.388C120.339 220.633 120.95 220.758 121.616 220.758C122.223 220.758 122.88 220.625 123.587 220.355C124.294 220.089 124.935 219.727 125.513 219.273L127.418 221.623C126.894 221.989 126.299 222.322 125.629 222.617C124.96 222.913 124.257 223.145 123.521 223.316C122.785 223.486 122.082 223.57 121.404 223.57C120.273 223.57 119.233 223.374 118.28 222.987C117.328 222.601 116.492 222.06 115.773 221.365C115.053 220.675 114.496 219.86 114.101 218.92C113.706 217.98 113.506 216.974 113.506 215.9C113.506 214.827 113.71 213.829 114.121 212.902C114.529 211.979 115.099 211.168 115.827 210.477C116.554 209.787 117.411 209.25 118.401 208.868C119.391 208.485 120.456 208.298 121.599 208.298C122.335 208.298 123.059 208.385 123.783 208.564C124.502 208.739 125.188 208.992 125.837 209.317C126.486 209.641 127.06 210.028 127.555 210.481L125.663 212.769ZM124.519 215.88H127.422V221.619H124.519V215.88Z" fill="white"/>
<path d="M135.64 208.51C137.573 208.51 139.075 208.959 140.14 209.853C141.204 210.751 141.737 212.012 141.737 213.634C141.737 215.343 141.204 216.674 140.14 217.626C139.075 218.579 137.573 219.057 135.64 219.057H132.545V223.337H129.197V208.51H135.64ZM135.64 216.345C136.559 216.345 137.274 216.129 137.79 215.701C138.305 215.268 138.563 214.615 138.563 213.742C138.563 212.893 138.305 212.261 137.79 211.837C137.274 211.413 136.559 211.201 135.64 211.201H132.545V216.349H135.64V216.345ZM135.236 217.809H138.497L142.098 223.337H138.305L135.236 217.809Z" fill="white"/>
<path d="M143.393 208.51H154.68V211.201H146.736V214.549H153.873V217.239H146.736V220.65H154.913V223.341H143.393V208.51Z" fill="white"/>
<path d="M156.396 208.51H167.684V211.201H159.74V214.549H166.877V217.239H159.74V220.65H167.917V223.341H156.396V208.51Z" fill="white"/>
<path d="M182.807 208.51V223.337L174.78 216.607L172.601 214.782V223.337H169.398V208.51L177.45 215.256L179.655 217.102V208.51H182.807Z" fill="white"/>
<path d="M202.067 212.769C201.53 212.245 200.898 211.837 200.17 211.542C199.442 211.247 198.719 211.097 197.999 211.097C197.334 211.097 196.722 211.222 196.157 211.467C195.591 211.712 195.096 212.058 194.676 212.494C194.252 212.931 193.923 213.443 193.69 214.021C193.458 214.599 193.341 215.227 193.341 215.905C193.341 216.583 193.462 217.215 193.703 217.801C193.944 218.388 194.277 218.903 194.697 219.348C195.121 219.793 195.616 220.138 196.182 220.388C196.747 220.633 197.359 220.758 198.024 220.758C198.631 220.758 199.288 220.625 199.995 220.355C200.702 220.089 201.343 219.727 201.921 219.273L203.826 221.623C203.302 221.989 202.707 222.322 202.038 222.617C201.368 222.913 200.665 223.145 199.929 223.316C199.193 223.486 198.49 223.57 197.812 223.57C196.681 223.57 195.641 223.374 194.689 222.987C193.736 222.601 192.9 222.06 192.181 221.365C191.461 220.675 190.904 219.86 190.509 218.92C190.114 217.98 189.914 216.974 189.914 215.9C189.914 214.827 190.118 213.829 190.53 212.902C190.937 211.979 191.507 211.168 192.235 210.477C192.963 209.787 193.819 209.25 194.809 208.868C195.799 208.485 196.864 208.298 198.007 208.298C198.744 208.298 199.467 208.385 200.191 208.564C200.91 208.739 201.597 208.992 202.245 209.317C202.894 209.641 203.468 210.028 203.963 210.481L202.067 212.769ZM200.923 215.88H203.826V221.619H200.923V215.88Z" fill="white"/>
<path d="M212.509 208.298C213.641 208.298 214.689 208.489 215.654 208.868C216.618 209.25 217.463 209.787 218.186 210.477C218.906 211.168 219.467 211.974 219.871 212.894C220.274 213.813 220.474 214.815 220.474 215.9C220.474 216.974 220.274 217.976 219.871 218.907C219.467 219.839 218.906 220.654 218.186 221.353C217.467 222.052 216.623 222.596 215.654 222.983C214.685 223.37 213.636 223.565 212.509 223.565C211.378 223.565 210.33 223.37 209.365 222.983C208.396 222.596 207.556 222.052 206.832 221.353C206.113 220.654 205.551 219.839 205.148 218.907C204.745 217.976 204.545 216.974 204.545 215.9C204.545 214.815 204.745 213.809 205.148 212.881C205.551 211.958 206.113 211.151 206.832 210.465C207.552 209.778 208.396 209.246 209.365 208.863C210.33 208.489 211.378 208.298 212.509 208.298ZM212.551 211.113C211.931 211.113 211.341 211.234 210.783 211.475C210.226 211.717 209.739 212.053 209.324 212.49C208.908 212.927 208.579 213.438 208.338 214.016C208.097 214.595 207.976 215.223 207.976 215.9C207.976 216.578 208.097 217.211 208.338 217.797C208.579 218.383 208.912 218.899 209.332 219.344C209.756 219.789 210.243 220.134 210.792 220.384C211.341 220.633 211.927 220.754 212.551 220.754C213.171 220.754 213.753 220.629 214.298 220.384C214.843 220.138 215.317 219.789 215.728 219.344C216.136 218.899 216.46 218.383 216.693 217.797C216.926 217.211 217.043 216.578 217.043 215.9C217.043 215.223 216.926 214.595 216.693 214.016C216.46 213.438 216.14 212.931 215.728 212.49C215.317 212.053 214.843 211.712 214.298 211.475C213.753 211.234 213.171 211.113 212.551 211.113Z" fill="white"/>
<path d="M221.531 208.51H224.879V220.521H231.213V223.337H221.531V208.51Z" fill="white"/>
<path d="M238.35 208.51C239.506 208.51 240.562 208.689 241.515 209.05C242.467 209.412 243.291 209.92 243.981 210.577C244.672 211.234 245.208 212.012 245.591 212.918C245.973 213.821 246.165 214.823 246.165 215.925C246.165 217.011 245.973 218.009 245.591 218.911C245.208 219.814 244.667 220.6 243.96 221.261C243.253 221.927 242.417 222.438 241.452 222.796C240.483 223.158 239.415 223.337 238.242 223.337H232.078V208.51H238.35ZM238.433 220.604C239.069 220.604 239.647 220.492 240.172 220.267C240.696 220.043 241.149 219.722 241.54 219.302C241.927 218.886 242.226 218.396 242.438 217.83C242.65 217.264 242.754 216.636 242.754 215.946C242.754 215.256 242.642 214.623 242.417 214.05C242.193 213.48 241.881 212.977 241.486 212.544C241.091 212.111 240.621 211.787 240.076 211.558C239.531 211.334 238.936 211.221 238.287 211.221H235.43V220.604H238.433Z" fill="white"/>
<path d="M126.553 231.389H127.514L130.516 235.469L130.25 235.56V231.389H131.236V236.696H130.267L127.281 232.624L127.547 232.532V236.696H126.553V231.389Z" fill="url(#paint13_linear_845_16641)"/>
<path d="M134.097 231.389H135.137L137.433 236.696H136.347L134.58 232.412L132.82 236.696H131.76L134.097 231.389ZM132.983 234.712H136.144V235.539H132.983V234.712Z" fill="url(#paint14_linear_845_16641)"/>
<path d="M136.834 231.389H141.163V232.245H139.512V236.696H138.489V232.245H136.838V231.389H136.834Z" fill="url(#paint15_linear_845_16641)"/>
<path d="M142.677 234.512C142.677 234.949 142.797 235.29 143.034 235.535C143.271 235.785 143.592 235.905 143.991 235.905C144.386 235.905 144.698 235.785 144.931 235.539C145.164 235.294 145.28 234.953 145.28 234.512V231.389H146.295V234.512C146.295 234.978 146.203 235.377 146.016 235.714C145.829 236.051 145.567 236.309 145.222 236.492C144.877 236.675 144.465 236.766 143.991 236.766C143.513 236.766 143.097 236.675 142.747 236.492C142.398 236.309 142.132 236.051 141.945 235.714C141.758 235.377 141.666 234.978 141.666 234.512V231.389H142.681V234.512H142.677Z" fill="url(#paint16_linear_845_16641)"/>
<path d="M149.586 231.389C150.272 231.389 150.804 231.547 151.179 231.867C151.553 232.187 151.74 232.632 151.74 233.21C151.74 233.813 151.553 234.279 151.179 234.612C150.804 234.945 150.272 235.111 149.586 235.111H148.388V236.696H147.373V231.389H149.586ZM149.586 234.271C149.964 234.271 150.259 234.184 150.463 234.013C150.671 233.842 150.775 233.58 150.775 233.231C150.775 232.898 150.671 232.649 150.463 232.487C150.255 232.32 149.964 232.241 149.586 232.241H148.388V234.271H149.586ZM149.548 234.724H150.542L151.848 236.696H150.696L149.548 234.724Z" fill="url(#paint17_linear_845_16641)"/>
<path d="M154.406 231.389H155.445L157.741 236.696H156.656L154.888 232.412L153.129 236.696H152.068L154.406 231.389ZM153.291 234.712H156.452V235.539H153.291V234.712Z" fill="url(#paint18_linear_845_16641)"/>
<path d="M158.274 231.389H159.288V235.83H161.576V236.696H158.269V231.389H158.274Z" fill="url(#paint19_linear_845_16641)"/>
<path d="M164.18 231.389H165.194V233.676H167.84V231.389H168.863V236.696H167.84V234.52H165.194V236.696H164.18V231.389Z" fill="url(#paint20_linear_845_16641)"/>
<path d="M170.043 231.389H173.932V232.237H171.058V233.61H173.636V234.45H171.058V235.843H174.023V236.691H170.043V231.389Z" fill="url(#paint21_linear_845_16641)"/>
<path d="M177.146 231.389C177.832 231.389 178.365 231.547 178.739 231.867C179.113 232.187 179.301 232.632 179.301 233.21C179.301 233.813 179.113 234.279 178.739 234.612C178.365 234.945 177.832 235.111 177.146 235.111H175.948V236.696H174.934V231.389H177.146ZM177.146 234.271C177.525 234.271 177.82 234.184 178.024 234.013C178.232 233.842 178.336 233.58 178.336 233.231C178.336 232.898 178.232 232.649 178.024 232.487C177.816 232.32 177.525 232.241 177.146 232.241H175.948V234.271H177.146ZM177.109 234.724H178.103L179.409 236.696H178.257L177.109 234.724Z" fill="url(#paint22_linear_845_16641)"/>
<path d="M182.653 231.388C183.031 231.388 183.36 231.442 183.63 231.546C183.905 231.654 184.113 231.804 184.258 232C184.404 232.195 184.479 232.436 184.479 232.711C184.479 233.006 184.395 233.256 184.233 233.468C184.067 233.68 183.842 233.817 183.555 233.884C183.905 233.95 184.179 234.1 184.383 234.337C184.587 234.574 184.687 234.869 184.687 235.223C184.687 235.526 184.608 235.788 184.445 236.009C184.283 236.229 184.059 236.396 183.767 236.512C183.476 236.629 183.131 236.687 182.724 236.687H180.299V231.38H182.653V231.388ZM182.599 233.572C182.861 233.572 183.069 233.509 183.218 233.389C183.368 233.268 183.443 233.098 183.443 232.881C183.443 232.673 183.368 232.511 183.218 232.395C183.069 232.278 182.865 232.224 182.599 232.228H181.309V233.572H182.599ZM182.599 235.855C182.923 235.859 183.177 235.797 183.356 235.664C183.539 235.531 183.63 235.348 183.63 235.111C183.63 234.89 183.539 234.711 183.356 234.582C183.173 234.453 182.923 234.391 182.599 234.391H181.309V235.855H182.599Z" fill="url(#paint23_linear_845_16641)"/>
<path d="M188.883 232.698C188.696 232.582 188.504 232.486 188.309 232.411C188.113 232.337 187.93 232.283 187.76 232.249C187.589 232.216 187.431 232.199 187.29 232.199C187.053 232.199 186.862 232.245 186.716 232.337C186.571 232.428 186.5 232.561 186.5 232.74C186.5 232.902 186.55 233.035 186.654 233.135C186.758 233.235 186.895 233.318 187.061 233.385C187.232 233.451 187.415 233.514 187.619 233.576C187.822 233.638 188.022 233.705 188.226 233.776C188.43 233.85 188.613 233.942 188.783 234.058C188.954 234.175 189.087 234.325 189.187 234.508C189.286 234.691 189.336 234.915 189.336 235.19C189.336 235.518 189.249 235.797 189.07 236.03C188.891 236.263 188.65 236.442 188.346 236.566C188.039 236.691 187.693 236.758 187.303 236.758C187.02 236.758 186.741 236.72 186.471 236.649C186.2 236.575 185.947 236.475 185.705 236.35C185.464 236.225 185.248 236.076 185.057 235.909L185.481 235.082C185.664 235.248 185.859 235.393 186.071 235.51C186.284 235.63 186.496 235.718 186.712 235.784C186.928 235.847 187.128 235.88 187.315 235.88C187.602 235.88 187.827 235.826 187.985 235.714C188.143 235.601 188.222 235.448 188.222 235.244C188.222 235.077 188.172 234.944 188.068 234.84C187.964 234.74 187.831 234.653 187.66 234.587C187.49 234.52 187.307 234.458 187.103 234.404C186.899 234.35 186.695 234.287 186.491 234.212C186.288 234.137 186.105 234.046 185.934 233.934C185.764 233.821 185.626 233.676 185.527 233.497C185.423 233.322 185.373 233.094 185.373 232.823C185.373 232.515 185.456 232.249 185.622 232.025C185.789 231.8 186.022 231.625 186.317 231.501C186.612 231.376 186.961 231.313 187.361 231.313C187.714 231.313 188.059 231.363 188.396 231.463C188.733 231.563 189.028 231.7 189.278 231.867L188.883 232.698Z" fill="url(#paint24_linear_845_16641)"/>
<path d="M194.282 231.389C194.956 231.389 195.476 231.547 195.842 231.867C196.212 232.187 196.395 232.632 196.395 233.211C196.395 233.814 196.212 234.279 195.842 234.612C195.472 234.945 194.952 235.111 194.282 235.111H192.681L193.13 234.662V236.692H192.115V231.385H194.282V231.389ZM194.236 234.271C194.615 234.271 194.906 234.184 195.114 234.013C195.322 233.843 195.422 233.581 195.422 233.231C195.422 232.899 195.318 232.649 195.114 232.487C194.91 232.321 194.619 232.242 194.236 232.242H192.681L193.13 231.792V234.72L192.681 234.271H194.236Z" fill="url(#paint25_linear_845_16641)"/>
<path d="M199.322 231.389C200.008 231.389 200.541 231.547 200.915 231.867C201.289 232.187 201.476 232.632 201.476 233.21C201.476 233.813 201.289 234.279 200.915 234.612C200.541 234.945 200.012 235.111 199.322 235.111H198.124V236.696H197.109V231.389H199.322ZM199.322 234.271C199.7 234.271 199.996 234.184 200.204 234.013C200.412 233.842 200.516 233.58 200.516 233.231C200.516 232.898 200.412 232.649 200.204 232.487C199.996 232.32 199.705 232.241 199.322 232.241H198.124V234.271H199.322ZM199.285 234.724H200.279L201.584 236.696H200.432L199.285 234.724Z" fill="url(#paint26_linear_845_16641)"/>
<path d="M204.879 231.33C205.278 231.33 205.649 231.397 205.994 231.534C206.339 231.671 206.638 231.862 206.892 232.112C207.146 232.357 207.345 232.648 207.491 232.973C207.637 233.297 207.707 233.655 207.707 234.038C207.707 234.416 207.637 234.774 207.491 235.106C207.345 235.439 207.146 235.73 206.892 235.98C206.638 236.229 206.339 236.421 205.994 236.558C205.649 236.695 205.278 236.766 204.879 236.766C204.48 236.766 204.11 236.695 203.769 236.558C203.428 236.421 203.128 236.225 202.87 235.98C202.613 235.73 202.413 235.443 202.267 235.111C202.122 234.778 202.051 234.42 202.051 234.038C202.051 233.655 202.122 233.297 202.267 232.969C202.413 232.64 202.613 232.353 202.87 232.108C203.128 231.862 203.428 231.671 203.769 231.534C204.11 231.397 204.48 231.33 204.879 231.33ZM204.896 232.187C204.646 232.187 204.418 232.233 204.197 232.328C203.981 232.42 203.789 232.553 203.619 232.723C203.453 232.894 203.324 233.089 203.228 233.31C203.137 233.53 203.087 233.776 203.087 234.038C203.087 234.3 203.137 234.545 203.232 234.77C203.328 234.994 203.461 235.194 203.627 235.364C203.794 235.535 203.985 235.672 204.205 235.768C204.422 235.863 204.655 235.913 204.896 235.913C205.137 235.913 205.366 235.863 205.582 235.768C205.798 235.672 205.985 235.539 206.148 235.364C206.31 235.194 206.439 234.994 206.53 234.77C206.622 234.545 206.672 234.3 206.672 234.038C206.672 233.776 206.626 233.53 206.53 233.31C206.439 233.085 206.31 232.89 206.148 232.723C205.985 232.553 205.798 232.424 205.582 232.328C205.366 232.233 205.137 232.187 204.896 232.187Z" fill="url(#paint27_linear_845_16641)"/>
<path d="M210.685 231.388C211.088 231.388 211.458 231.455 211.795 231.58C212.132 231.708 212.423 231.891 212.669 232.128C212.914 232.366 213.105 232.648 213.243 232.969C213.38 233.293 213.446 233.647 213.446 234.037C213.446 234.42 213.38 234.774 213.243 235.098C213.105 235.422 212.914 235.701 212.664 235.938C212.419 236.175 212.12 236.358 211.779 236.491C211.433 236.624 211.059 236.687 210.656 236.687H208.48V231.38H210.685V231.388ZM210.71 235.847C210.951 235.847 211.175 235.801 211.383 235.714C211.591 235.626 211.77 235.501 211.924 235.343C212.078 235.185 212.199 234.994 212.29 234.774C212.377 234.553 212.423 234.312 212.423 234.05C212.423 233.784 212.377 233.538 212.286 233.318C212.194 233.098 212.07 232.906 211.916 232.74C211.758 232.578 211.575 232.449 211.363 232.366C211.151 232.278 210.918 232.237 210.664 232.237H209.495V235.847H210.71Z" fill="url(#paint28_linear_845_16641)"/>
<path d="M215.136 234.512C215.136 234.949 215.256 235.29 215.493 235.535C215.73 235.785 216.051 235.905 216.45 235.905C216.845 235.905 217.157 235.785 217.39 235.539C217.623 235.294 217.739 234.953 217.739 234.512V231.389H218.754V234.512C218.754 234.978 218.662 235.377 218.475 235.714C218.292 236.051 218.026 236.309 217.681 236.492C217.336 236.675 216.924 236.766 216.45 236.766C215.967 236.766 215.556 236.675 215.206 236.492C214.857 236.309 214.591 236.051 214.404 235.714C214.216 235.377 214.125 234.978 214.125 234.512V231.389H215.14V234.512H215.136Z" fill="url(#paint29_linear_845_16641)"/>
<path d="M223.669 232.869C223.482 232.657 223.262 232.49 223.004 232.366C222.746 232.241 222.488 232.179 222.23 232.179C221.981 232.179 221.752 232.224 221.536 232.32C221.319 232.416 221.132 232.545 220.966 232.715C220.804 232.886 220.675 233.081 220.583 233.301C220.492 233.526 220.446 233.763 220.446 234.021C220.446 234.279 220.492 234.52 220.583 234.745C220.675 234.969 220.804 235.165 220.966 235.331C221.132 235.497 221.319 235.63 221.536 235.726C221.752 235.822 221.981 235.872 222.23 235.872C222.488 235.872 222.742 235.813 222.995 235.701C223.249 235.589 223.474 235.431 223.669 235.235L224.268 235.863C224.089 236.046 223.885 236.204 223.657 236.342C223.428 236.479 223.187 236.583 222.937 236.658C222.688 236.733 222.434 236.766 222.176 236.766C221.785 236.766 221.423 236.695 221.086 236.558C220.75 236.421 220.458 236.225 220.209 235.98C219.959 235.734 219.764 235.443 219.622 235.106C219.481 234.774 219.41 234.416 219.41 234.038C219.41 233.655 219.481 233.297 219.622 232.973C219.764 232.648 219.963 232.362 220.221 232.112C220.479 231.862 220.774 231.671 221.111 231.534C221.448 231.397 221.814 231.33 222.214 231.33C222.471 231.33 222.721 231.363 222.966 231.434C223.212 231.501 223.445 231.6 223.669 231.721C223.894 231.846 224.089 231.996 224.26 232.17L223.669 232.869Z" fill="url(#paint30_linear_845_16641)"/>
<path d="M224.393 231.389H228.722V232.245H227.071V236.696H226.048V232.245H224.397V231.389H224.393Z" fill="url(#paint31_linear_845_16641)"/>
<path d="M232.656 232.698C232.469 232.582 232.278 232.486 232.082 232.411C231.887 232.337 231.704 232.283 231.533 232.249C231.363 232.216 231.205 232.199 231.063 232.199C230.826 232.199 230.635 232.245 230.49 232.337C230.344 232.428 230.273 232.561 230.273 232.74C230.273 232.902 230.323 233.035 230.427 233.135C230.531 233.235 230.668 233.318 230.835 233.385C231.005 233.451 231.188 233.514 231.392 233.576C231.596 233.638 231.795 233.705 231.999 233.776C232.203 233.85 232.386 233.942 232.557 234.058C232.727 234.175 232.86 234.325 232.96 234.508C233.06 234.691 233.11 234.915 233.11 235.19C233.11 235.518 233.022 235.797 232.844 236.03C232.665 236.263 232.423 236.442 232.12 236.566C231.812 236.691 231.467 236.758 231.076 236.758C230.793 236.758 230.514 236.72 230.244 236.649C229.974 236.575 229.72 236.475 229.479 236.35C229.238 236.225 229.021 236.076 228.83 235.909L229.254 235.082C229.437 235.248 229.633 235.393 229.845 235.51C230.057 235.63 230.269 235.718 230.485 235.784C230.702 235.847 230.901 235.88 231.088 235.88C231.375 235.88 231.6 235.826 231.758 235.714C231.916 235.601 231.995 235.448 231.995 235.244C231.995 235.077 231.945 234.944 231.841 234.84C231.737 234.74 231.604 234.653 231.434 234.587C231.263 234.52 231.08 234.458 230.876 234.404C230.673 234.35 230.469 234.287 230.265 234.212C230.061 234.137 229.878 234.046 229.708 233.934C229.537 233.821 229.4 233.676 229.3 233.497C229.196 233.322 229.146 233.094 229.146 232.823C229.146 232.515 229.229 232.249 229.396 232.025C229.562 231.8 229.795 231.625 230.09 231.501C230.386 231.376 230.735 231.313 231.134 231.313C231.488 231.313 231.833 231.363 232.17 231.463C232.507 231.563 232.802 231.7 233.051 231.867L232.656 232.698Z" fill="url(#paint32_linear_845_16641)"/>
<path d="M238.102 235.518C238.919 235.518 239.582 234.855 239.582 234.037C239.582 233.22 238.919 232.557 238.102 232.557C237.284 232.557 236.621 233.22 236.621 234.037C236.621 234.855 237.284 235.518 238.102 235.518Z" fill="url(#paint33_linear_845_16641)"/>
<path d="M121.57 235.518C122.388 235.518 123.051 234.855 123.051 234.037C123.051 233.22 122.388 232.557 121.57 232.557C120.753 232.557 120.09 233.22 120.09 234.037C120.09 234.855 120.753 235.518 121.57 235.518Z" fill="url(#paint34_linear_845_16641)"/>
<path d="M268.882 261.983V269.269C268.882 278.203 261.641 285.444 252.708 285.444H236.005C224.427 294.352 203.424 300.308 179.439 300.308C155.454 300.308 134.455 294.352 122.877 285.444H106.17C97.2408 285.444 90 278.203 90 269.269V261.983C90 270.916 97.2408 278.157 106.17 278.157H122.877C134.455 287.066 155.454 293.021 179.439 293.021C202.13 293.021 222.152 287.69 234.051 279.571H233.909C190.872 244.241 140.008 273.537 139.014 274.115C199.327 234.28 241.483 277.945 241.483 277.945V278.157H252.708C261.645 278.157 268.882 270.912 268.882 261.983Z" fill="url(#paint35_linear_845_16641)"/>
<path d="M348.882 83V69.68L349.962 72.76L337.842 54.8H343.802L352.122 67.6H351.002L359.322 54.8H365.082L353.002 72.76L354.042 69.68V83H348.882ZM372.558 83.4C370.478 83.4 368.678 82.9733 367.158 82.12C365.638 81.2667 364.451 80.0533 363.598 78.48C362.771 76.9067 362.358 75.04 362.358 72.88C362.358 70.72 362.771 68.8667 363.598 67.32C364.451 65.7467 365.638 64.5333 367.158 63.68C368.678 62.8267 370.478 62.4 372.558 62.4C374.638 62.4 376.438 62.8267 377.958 63.68C379.505 64.5333 380.691 65.7467 381.518 67.32C382.371 68.8667 382.798 70.72 382.798 72.88C382.798 75.04 382.371 76.9067 381.518 78.48C380.691 80.0533 379.505 81.2667 377.958 82.12C376.438 82.9733 374.638 83.4 372.558 83.4ZM372.558 79.56C374.131 79.56 375.385 79.0133 376.318 77.92C377.251 76.8 377.718 75.12 377.718 72.88C377.718 70.64 377.251 68.9733 376.318 67.88C375.385 66.7867 374.131 66.24 372.558 66.24C370.985 66.24 369.731 66.7867 368.798 67.88C367.865 68.9733 367.398 70.64 367.398 72.88C367.398 75.12 367.865 76.8 368.798 77.92C369.731 79.0133 370.985 79.56 372.558 79.56ZM394.39 83.4C391.91 83.4 390.057 82.72 388.83 81.36C387.603 80 386.99 77.92 386.99 75.12V62.8H391.99V75.08C391.99 76.5733 392.297 77.68 392.91 78.4C393.523 79.0933 394.457 79.44 395.71 79.44C397.123 79.44 398.27 78.96 399.15 78C400.057 77.04 400.51 75.7733 400.51 74.2V62.8H405.51V83H400.63V78.88H401.19C400.603 80.32 399.71 81.44 398.51 82.24C397.337 83.0133 395.963 83.4 394.39 83.4ZM410.898 83V67.96C410.898 67.1067 410.871 66.24 410.818 65.36C410.791 64.48 410.725 63.6267 410.618 62.8H415.458L416.018 68.32H415.218C415.485 66.9867 415.925 65.88 416.538 65C417.178 64.12 417.951 63.4667 418.858 63.04C419.765 62.6133 420.751 62.4 421.818 62.4C422.298 62.4 422.685 62.4267 422.978 62.48C423.271 62.5067 423.565 62.5733 423.858 62.68L423.818 67.08C423.311 66.8667 422.871 66.7333 422.498 66.68C422.151 66.6267 421.711 66.6 421.178 66.6C420.031 66.6 419.058 66.84 418.258 67.32C417.485 67.8 416.898 68.4667 416.498 69.32C416.125 70.1733 415.938 71.1467 415.938 72.24V83H410.898ZM438.018 83V54.8H443.178V66.56H457.618V54.8H462.778V83H457.618V70.84H443.178V83H438.018ZM478.354 83.4C474.968 83.4 472.314 82.4667 470.394 80.6C468.474 78.7333 467.514 76.1733 467.514 72.92C467.514 70.8133 467.928 68.9733 468.754 67.4C469.581 65.8267 470.728 64.6 472.194 63.72C473.688 62.84 475.421 62.4 477.394 62.4C479.341 62.4 480.968 62.8133 482.274 63.64C483.581 64.4667 484.568 65.6267 485.234 67.12C485.928 68.6133 486.274 70.36 486.274 72.36V73.68H471.554V71.04H482.714L482.034 71.6C482.034 69.7333 481.634 68.3067 480.834 67.32C480.061 66.3333 478.928 65.84 477.434 65.84C475.781 65.84 474.501 66.4267 473.594 67.6C472.714 68.7733 472.274 70.4133 472.274 72.52V73.04C472.274 75.2267 472.808 76.8667 473.874 77.96C474.968 79.0267 476.501 79.56 478.474 79.56C479.621 79.56 480.688 79.4133 481.674 79.12C482.688 78.8 483.648 78.2933 484.554 77.6L486.034 80.96C485.074 81.7333 483.928 82.3333 482.594 82.76C481.261 83.1867 479.848 83.4 478.354 83.4ZM498.308 83.4C496.548 83.4 495.002 82.9867 493.668 82.16C492.335 81.3067 491.295 80.0933 490.548 78.52C489.802 76.9467 489.428 75.0667 489.428 72.88C489.428 70.6933 489.802 68.8267 490.548 67.28C491.295 65.7067 492.335 64.5067 493.668 63.68C495.002 62.8267 496.548 62.4 498.308 62.4C500.015 62.4 501.508 62.8267 502.788 63.68C504.095 64.5067 504.962 65.6267 505.388 67.04H504.948L505.388 62.8H510.188C510.108 63.6267 510.028 64.4667 509.948 65.32C509.895 66.1733 509.868 67.0133 509.868 67.84V83H504.908L504.868 78.84H505.348C504.922 80.2267 504.055 81.3333 502.748 82.16C501.442 82.9867 499.962 83.4 498.308 83.4ZM499.708 79.56C501.282 79.56 502.548 79.0133 503.508 77.92C504.468 76.8 504.948 75.12 504.948 72.88C504.948 70.64 504.468 68.9733 503.508 67.88C502.548 66.7867 501.282 66.24 499.708 66.24C498.135 66.24 496.868 66.7867 495.908 67.88C494.948 68.9733 494.468 70.64 494.468 72.88C494.468 75.12 494.935 76.8 495.868 77.92C496.828 79.0133 498.108 79.56 499.708 79.56ZM515.313 83V53.56H520.313V83H515.313ZM534.383 83.4C531.983 83.4 530.169 82.7733 528.943 81.52C527.716 80.2667 527.103 78.3867 527.103 75.88V66.56H523.223V62.8H527.103V57.64L532.103 56.36V62.8H537.503V66.56H532.103V75.56C532.103 76.9467 532.369 77.92 532.903 78.48C533.436 79.04 534.169 79.32 535.103 79.32C535.609 79.32 536.036 79.28 536.383 79.2C536.756 79.12 537.116 79.0133 537.463 78.88V82.84C537.009 83.0267 536.503 83.16 535.943 83.24C535.409 83.3467 534.889 83.4 534.383 83.4ZM540.899 83V53.56H545.899V66.84H545.339C545.952 65.4 546.899 64.3067 548.179 63.56C549.459 62.7867 550.926 62.4 552.579 62.4C554.979 62.4 556.766 63.08 557.939 64.44C559.112 65.7733 559.699 67.8133 559.699 70.56V83H554.699V70.8C554.699 69.2267 554.392 68.0933 553.779 67.4C553.192 66.68 552.246 66.32 550.939 66.32C549.419 66.32 548.192 66.8 547.259 67.76C546.352 68.6933 545.899 69.9467 545.899 71.52V83H540.899ZM575.977 83V62.8H580.977V83H575.977ZM575.697 59V54.12H581.257V59H575.697ZM593.607 83.4C591.873 83.4 590.273 83.2 588.807 82.8C587.367 82.3733 586.153 81.7867 585.167 81.04L586.567 77.68C587.58 78.3733 588.7 78.9067 589.927 79.28C591.153 79.6533 592.393 79.84 593.647 79.84C594.98 79.84 595.967 79.6133 596.607 79.16C597.273 78.7067 597.607 78.0933 597.607 77.32C597.607 76.7067 597.393 76.2267 596.967 75.88C596.567 75.5067 595.913 75.2267 595.007 75.04L591.007 74.28C589.3 73.9067 587.993 73.2667 587.087 72.36C586.207 71.4533 585.767 70.2667 585.767 68.8C585.767 67.5467 586.1 66.44 586.767 65.48C587.46 64.52 588.433 63.7733 589.687 63.24C590.967 62.68 592.46 62.4 594.167 62.4C595.66 62.4 597.06 62.6 598.367 63C599.7 63.4 600.82 64 601.727 64.8L600.287 68.04C599.46 67.3733 598.513 66.8533 597.447 66.48C596.38 66.1067 595.34 65.92 594.327 65.92C592.94 65.92 591.927 66.1733 591.287 66.68C590.647 67.16 590.327 67.7867 590.327 68.56C590.327 69.1467 590.513 69.64 590.887 70.04C591.287 70.4133 591.9 70.6933 592.727 70.88L596.727 71.64C598.513 71.9867 599.86 72.6 600.767 73.48C601.7 74.3333 602.167 75.5067 602.167 77C602.167 78.3333 601.807 79.48 601.087 80.44C600.367 81.4 599.367 82.1333 598.087 82.64C596.807 83.1467 595.313 83.4 593.607 83.4ZM631.422 83.4C628.249 83.4 625.582 82.8133 623.422 81.64C621.262 80.4667 619.636 78.8 618.542 76.64C617.449 74.48 616.902 71.92 616.902 68.96C616.902 65.9733 617.489 63.4 618.662 61.24C619.836 59.0533 621.516 57.3733 623.702 56.2C625.916 55 628.569 54.4 631.662 54.4C633.716 54.4 635.516 54.68 637.062 55.24C638.609 55.7733 639.969 56.56 641.142 57.6L639.422 61.6C638.569 60.9333 637.756 60.4 636.982 60C636.209 59.6 635.409 59.32 634.582 59.16C633.756 58.9733 632.796 58.88 631.702 58.88C628.609 58.88 626.262 59.76 624.662 61.52C623.089 63.2533 622.302 65.7467 622.302 69C622.302 72.2533 623.049 74.7333 624.542 76.44C626.062 78.1467 628.436 79 631.662 79C632.756 79 633.849 78.8933 634.942 78.68C636.062 78.4667 637.156 78.16 638.222 77.76L637.262 79.92V71.48H630.662V67.72H641.542V81.28C640.236 81.9467 638.676 82.4667 636.862 82.84C635.049 83.2133 633.236 83.4 631.422 83.4ZM656.152 83.4C654.072 83.4 652.272 82.9733 650.752 82.12C649.232 81.2667 648.045 80.0533 647.192 78.48C646.365 76.9067 645.952 75.04 645.952 72.88C645.952 70.72 646.365 68.8667 647.192 67.32C648.045 65.7467 649.232 64.5333 650.752 63.68C652.272 62.8267 654.072 62.4 656.152 62.4C658.232 62.4 660.032 62.8267 661.552 63.68C663.098 64.5333 664.285 65.7467 665.112 67.32C665.965 68.8667 666.392 70.72 666.392 72.88C666.392 75.04 665.965 76.9067 665.112 78.48C664.285 80.0533 663.098 81.2667 661.552 82.12C660.032 82.9733 658.232 83.4 656.152 83.4ZM656.152 79.56C657.725 79.56 658.978 79.0133 659.912 77.92C660.845 76.8 661.312 75.12 661.312 72.88C661.312 70.64 660.845 68.9733 659.912 67.88C658.978 66.7867 657.725 66.24 656.152 66.24C654.578 66.24 653.325 66.7867 652.392 67.88C651.458 68.9733 650.992 70.64 650.992 72.88C650.992 75.12 651.458 76.8 652.392 77.92C653.325 79.0133 654.578 79.56 656.152 79.56ZM670.704 83V53.56H675.704V83H670.704ZM688.973 83.4C687.213 83.4 685.653 82.9867 684.293 82.16C682.96 81.3067 681.92 80.0933 681.173 78.52C680.427 76.9467 680.053 75.0667 680.053 72.88C680.053 70.6933 680.427 68.8267 681.173 67.28C681.92 65.7067 682.96 64.5067 684.293 63.68C685.653 62.8267 687.213 62.4 688.973 62.4C690.653 62.4 692.133 62.8133 693.413 63.64C694.72 64.44 695.587 65.5333 696.013 66.92H695.493V53.56H700.493V83H695.573V78.72H696.053C695.627 80.16 694.76 81.3067 693.453 82.16C692.173 82.9867 690.68 83.4 688.973 83.4ZM690.373 79.56C691.947 79.56 693.213 79.0133 694.173 77.92C695.133 76.8 695.613 75.12 695.613 72.88C695.613 70.64 695.133 68.9733 694.173 67.88C693.213 66.7867 691.947 66.24 690.373 66.24C688.8 66.24 687.52 66.7867 686.533 67.88C685.573 68.9733 685.093 70.64 685.093 72.88C685.093 75.12 685.573 76.8 686.533 77.92C687.52 79.0133 688.8 79.56 690.373 79.56Z" fill="#212121"/>
</g>
<defs>
<filter id="filter0_bd_845_16641" x="-61.1462" y="-65.1462" width="1315.29" height="511.292" filterUnits="userSpaceOnUse" color-interpolation-filters="sRGB">
<feFlood flood-opacity="0" result="BackgroundImageFix"/>
<feGaussianBlur in="BackgroundImageFix" stdDeviation="38.0731"/>
<feComposite in2="SourceAlpha" operator="in" result="effect1_backgroundBlur_845_16641"/>
<feColorMatrix in="SourceAlpha" type="matrix" values="0 0 0 0 0 0 0 0 0 0 0 0 0 0 0 0 0 0 127 0" result="hardAlpha"/>
<feOffset dy="4"/>
<feGaussianBlur stdDeviation="7.5"/>
<feComposite in2="hardAlpha" operator="out"/>
<feColorMatrix type="matrix" values="0 0 0 0 0 0 0 0 0 0 0 0 0 0 0 0 0 0 0.1 0"/>
<feBlend mode="normal" in2="effect1_backgroundBlur_845_16641" result="effect2_dropShadow_845_16641"/>
<feBlend mode="normal" in="SourceGraphic" in2="effect2_dropShadow_845_16641" result="shape"/>
</filter>
<linearGradient id="paint0_linear_845_16641" x1="195.68" y1="16.1286" x2="619.622" y2="684.606" gradientUnits="userSpaceOnUse">
<stop stop-color="#EFEFEF" stop-opacity="0.6"/>
<stop offset="1" stop-color="white" stop-opacity="0.08"/>
</linearGradient>
<linearGradient id="paint1_linear_845_16641" x1="146.946" y1="80.2016" x2="256.849" y2="186.282" gradientUnits="userSpaceOnUse">
<stop stop-color="#CE9F41"/>
<stop offset="0.1229" stop-color="#D3AB43"/>
<stop offset="0.2514" stop-color="#F6ECDF"/>
<stop offset="0.3547" stop-color="#D3AB43"/>
<stop offset="0.5168" stop-color="#CE9F41"/>
<stop offset="0.6844" stop-color="#F6ECDF"/>
<stop offset="0.8464" stop-color="#CE9F41"/>
<stop offset="0.9888" stop-color="#CE9F41"/>
</linearGradient>
<linearGradient id="paint2_linear_845_16641" x1="112.807" y1="115.57" x2="222.711" y2="221.65" gradientUnits="userSpaceOnUse">
<stop stop-color="#CE9F41"/>
<stop offset="0.1229" stop-color="#D3AB43"/>
<stop offset="0.2514" stop-color="#F6ECDF"/>
<stop offset="0.3547" stop-color="#D3AB43"/>
<stop offset="0.5168" stop-color="#CE9F41"/>
<stop offset="0.6844" stop-color="#F6ECDF"/>
<stop offset="0.8464" stop-color="#CE9F41"/>
<stop offset="0.9888" stop-color="#CE9F41"/>
</linearGradient>
<linearGradient id="paint3_linear_845_16641" x1="144.951" y1="82.2676" x2="254.855" y2="188.348" gradientUnits="userSpaceOnUse">
<stop stop-color="#CE9F41"/>
<stop offset="0.1229" stop-color="#D3AB43"/>
<stop offset="0.2514" stop-color="#F6ECDF"/>
<stop offset="0.3547" stop-color="#D3AB43"/>
<stop offset="0.5168" stop-color="#CE9F41"/>
<stop offset="0.6844" stop-color="#F6ECDF"/>
<stop offset="0.8464" stop-color="#CE9F41"/>
<stop offset="0.9888" stop-color="#CE9F41"/>
</linearGradient>
<linearGradient id="paint4_linear_845_16641" x1="157.316" y1="69.4561" x2="267.22" y2="175.537" gradientUnits="userSpaceOnUse">
<stop stop-color="#CE9F41"/>
<stop offset="0.1229" stop-color="#D3AB43"/>
<stop offset="0.2514" stop-color="#F6ECDF"/>
<stop offset="0.3547" stop-color="#D3AB43"/>
<stop offset="0.5168" stop-color="#CE9F41"/>
<stop offset="0.6844" stop-color="#F6ECDF"/>
<stop offset="0.8464" stop-color="#CE9F41"/>
<stop offset="0.9888" stop-color="#CE9F41"/>
</linearGradient>
<linearGradient id="paint5_linear_845_16641" x1="114.883" y1="113.419" x2="224.786" y2="219.5" gradientUnits="userSpaceOnUse">
<stop stop-color="#CE9F41"/>
<stop offset="0.1229" stop-color="#D3AB43"/>
<stop offset="0.2514" stop-color="#F6ECDF"/>
<stop offset="0.3547" stop-color="#D3AB43"/>
<stop offset="0.5168" stop-color="#CE9F41"/>
<stop offset="0.6844" stop-color="#F6ECDF"/>
<stop offset="0.8464" stop-color="#CE9F41"/>
<stop offset="0.9888" stop-color="#CE9F41"/>
</linearGradient>
<linearGradient id="paint6_linear_845_16641" x1="107.353" y1="121.22" x2="217.257" y2="227.301" gradientUnits="userSpaceOnUse">
<stop stop-color="#CE9F41"/>
<stop offset="0.1229" stop-color="#D3AB43"/>
<stop offset="0.2514" stop-color="#F6ECDF"/>
<stop offset="0.3547" stop-color="#D3AB43"/>
<stop offset="0.5168" stop-color="#CE9F41"/>
<stop offset="0.6844" stop-color="#F6ECDF"/>
<stop offset="0.8464" stop-color="#CE9F41"/>
<stop offset="0.9888" stop-color="#CE9F41"/>
</linearGradient>
<linearGradient id="paint7_linear_845_16641" x1="120.578" y1="107.519" x2="230.481" y2="213.599" gradientUnits="userSpaceOnUse">
<stop stop-color="#CE9F41"/>
<stop offset="0.1229" stop-color="#D3AB43"/>
<stop offset="0.2514" stop-color="#F6ECDF"/>
<stop offset="0.3547" stop-color="#D3AB43"/>
<stop offset="0.5168" stop-color="#CE9F41"/>
<stop offset="0.6844" stop-color="#F6ECDF"/>
<stop offset="0.8464" stop-color="#CE9F41"/>
<stop offset="0.9888" stop-color="#CE9F41"/>
</linearGradient>
<linearGradient id="paint8_linear_845_16641" x1="141.907" y1="85.4222" x2="251.81" y2="191.503" gradientUnits="userSpaceOnUse">
<stop stop-color="#CE9F41"/>
<stop offset="0.1229" stop-color="#D3AB43"/>
<stop offset="0.2514" stop-color="#F6ECDF"/>
<stop offset="0.3547" stop-color="#D3AB43"/>
<stop offset="0.5168" stop-color="#CE9F41"/>
<stop offset="0.6844" stop-color="#F6ECDF"/>
<stop offset="0.8464" stop-color="#CE9F41"/>
<stop offset="0.9888" stop-color="#CE9F41"/>
</linearGradient>
<linearGradient id="paint9_linear_845_16641" x1="110.523" y1="117.936" x2="220.426" y2="224.017" gradientUnits="userSpaceOnUse">
<stop stop-color="#CE9F41"/>
<stop offset="0.1229" stop-color="#D3AB43"/>
<stop offset="0.2514" stop-color="#F6ECDF"/>
<stop offset="0.3547" stop-color="#D3AB43"/>
<stop offset="0.5168" stop-color="#CE9F41"/>
<stop offset="0.6844" stop-color="#F6ECDF"/>
<stop offset="0.8464" stop-color="#CE9F41"/>
<stop offset="0.9888" stop-color="#CE9F41"/>
</linearGradient>
<linearGradient id="paint10_linear_845_16641" x1="156.828" y1="69.9625" x2="266.732" y2="176.043" gradientUnits="userSpaceOnUse">
<stop stop-color="#CE9F41"/>
<stop offset="0.1229" stop-color="#D3AB43"/>
<stop offset="0.2514" stop-color="#F6ECDF"/>
<stop offset="0.3547" stop-color="#D3AB43"/>
<stop offset="0.5168" stop-color="#CE9F41"/>
<stop offset="0.6844" stop-color="#F6ECDF"/>
<stop offset="0.8464" stop-color="#CE9F41"/>
<stop offset="0.9888" stop-color="#CE9F41"/>
</linearGradient>
<linearGradient id="paint11_linear_845_16641" x1="102.753" y1="125.986" x2="212.656" y2="232.067" gradientUnits="userSpaceOnUse">
<stop stop-color="#CE9F41"/>
<stop offset="0.1229" stop-color="#D3AB43"/>
<stop offset="0.2514" stop-color="#F6ECDF"/>
<stop offset="0.3547" stop-color="#D3AB43"/>
<stop offset="0.5168" stop-color="#CE9F41"/>
<stop offset="0.6844" stop-color="#F6ECDF"/>
<stop offset="0.8464" stop-color="#CE9F41"/>
<stop offset="0.9888" stop-color="#CE9F41"/>
</linearGradient>
<linearGradient id="paint12_linear_845_16641" x1="105.134" y1="123.52" x2="215.038" y2="229.6" gradientUnits="userSpaceOnUse">
<stop stop-color="#CE9F41"/>
<stop offset="0.1229" stop-color="#D3AB43"/>
<stop offset="0.2514" stop-color="#F6ECDF"/>
<stop offset="0.3547" stop-color="#D3AB43"/>
<stop offset="0.5168" stop-color="#CE9F41"/>
<stop offset="0.6844" stop-color="#F6ECDF"/>
<stop offset="0.8464" stop-color="#CE9F41"/>
<stop offset="0.9888" stop-color="#CE9F41"/>
</linearGradient>
<linearGradient id="paint13_linear_845_16641" x1="119.98" y1="234.09" x2="240.396" y2="233.453" gradientUnits="userSpaceOnUse">
<stop stop-color="#CE9F41"/>
<stop offset="0.1229" stop-color="#D3AB43"/>
<stop offset="0.2514" stop-color="#F6ECDF"/>
<stop offset="0.3547" stop-color="#D3AB43"/>
<stop offset="0.5168" stop-color="#CE9F41"/>
<stop offset="0.6844" stop-color="#F6ECDF"/>
<stop offset="0.8464" stop-color="#CE9F41"/>
<stop offset="0.9888" stop-color="#CE9F41"/>
</linearGradient>
<linearGradient id="paint14_linear_845_16641" x1="119.98" y1="234.126" x2="240.396" y2="233.489" gradientUnits="userSpaceOnUse">
<stop stop-color="#CE9F41"/>
<stop offset="0.1229" stop-color="#D3AB43"/>
<stop offset="0.2514" stop-color="#F6ECDF"/>
<stop offset="0.3547" stop-color="#D3AB43"/>
<stop offset="0.5168" stop-color="#CE9F41"/>
<stop offset="0.6844" stop-color="#F6ECDF"/>
<stop offset="0.8464" stop-color="#CE9F41"/>
<stop offset="0.9888" stop-color="#CE9F41"/>
</linearGradient>
<linearGradient id="paint15_linear_845_16641" x1="119.98" y1="234.139" x2="240.396" y2="233.502" gradientUnits="userSpaceOnUse">
<stop stop-color="#CE9F41"/>
<stop offset="0.1229" stop-color="#D3AB43"/>
<stop offset="0.2514" stop-color="#F6ECDF"/>
<stop offset="0.3547" stop-color="#D3AB43"/>
<stop offset="0.5168" stop-color="#CE9F41"/>
<stop offset="0.6844" stop-color="#F6ECDF"/>
<stop offset="0.8464" stop-color="#CE9F41"/>
<stop offset="0.9888" stop-color="#CE9F41"/>
</linearGradient>
<linearGradient id="paint16_linear_845_16641" x1="119.98" y1="234.198" x2="240.395" y2="233.56" gradientUnits="userSpaceOnUse">
<stop stop-color="#CE9F41"/>
<stop offset="0.1229" stop-color="#D3AB43"/>
<stop offset="0.2514" stop-color="#F6ECDF"/>
<stop offset="0.3547" stop-color="#D3AB43"/>
<stop offset="0.5168" stop-color="#CE9F41"/>
<stop offset="0.6844" stop-color="#F6ECDF"/>
<stop offset="0.8464" stop-color="#CE9F41"/>
<stop offset="0.9888" stop-color="#CE9F41"/>
</linearGradient>
<linearGradient id="paint17_linear_845_16641" x1="119.981" y1="234.199" x2="240.396" y2="233.562" gradientUnits="userSpaceOnUse">
<stop stop-color="#CE9F41"/>
<stop offset="0.1229" stop-color="#D3AB43"/>
<stop offset="0.2514" stop-color="#F6ECDF"/>
<stop offset="0.3547" stop-color="#D3AB43"/>
<stop offset="0.5168" stop-color="#CE9F41"/>
<stop offset="0.6844" stop-color="#F6ECDF"/>
<stop offset="0.8464" stop-color="#CE9F41"/>
<stop offset="0.9888" stop-color="#CE9F41"/>
</linearGradient>
<linearGradient id="paint18_linear_845_16641" x1="119.98" y1="234.233" x2="240.396" y2="233.596" gradientUnits="userSpaceOnUse">
<stop stop-color="#CE9F41"/>
<stop offset="0.1229" stop-color="#D3AB43"/>
<stop offset="0.2514" stop-color="#F6ECDF"/>
<stop offset="0.3547" stop-color="#D3AB43"/>
<stop offset="0.5168" stop-color="#CE9F41"/>
<stop offset="0.6844" stop-color="#F6ECDF"/>
<stop offset="0.8464" stop-color="#CE9F41"/>
<stop offset="0.9888" stop-color="#CE9F41"/>
</linearGradient>
<linearGradient id="paint19_linear_845_16641" x1="119.981" y1="234.254" x2="240.397" y2="233.617" gradientUnits="userSpaceOnUse">
<stop stop-color="#CE9F41"/>
<stop offset="0.1229" stop-color="#D3AB43"/>
<stop offset="0.2514" stop-color="#F6ECDF"/>
<stop offset="0.3547" stop-color="#D3AB43"/>
<stop offset="0.5168" stop-color="#CE9F41"/>
<stop offset="0.6844" stop-color="#F6ECDF"/>
<stop offset="0.8464" stop-color="#CE9F41"/>
<stop offset="0.9888" stop-color="#CE9F41"/>
</linearGradient>
<linearGradient id="paint20_linear_845_16641" x1="119.981" y1="234.289" x2="240.397" y2="233.652" gradientUnits="userSpaceOnUse">
<stop stop-color="#CE9F41"/>
<stop offset="0.1229" stop-color="#D3AB43"/>
<stop offset="0.2514" stop-color="#F6ECDF"/>
<stop offset="0.3547" stop-color="#D3AB43"/>
<stop offset="0.5168" stop-color="#CE9F41"/>
<stop offset="0.6844" stop-color="#F6ECDF"/>
<stop offset="0.8464" stop-color="#CE9F41"/>
<stop offset="0.9888" stop-color="#CE9F41"/>
</linearGradient>
<linearGradient id="paint21_linear_845_16641" x1="119.981" y1="234.318" x2="240.396" y2="233.681" gradientUnits="userSpaceOnUse">
<stop stop-color="#CE9F41"/>
<stop offset="0.1229" stop-color="#D3AB43"/>
<stop offset="0.2514" stop-color="#F6ECDF"/>
<stop offset="0.3547" stop-color="#D3AB43"/>
<stop offset="0.5168" stop-color="#CE9F41"/>
<stop offset="0.6844" stop-color="#F6ECDF"/>
<stop offset="0.8464" stop-color="#CE9F41"/>
<stop offset="0.9888" stop-color="#CE9F41"/>
</linearGradient>
<linearGradient id="paint22_linear_845_16641" x1="119.98" y1="234.345" x2="240.396" y2="233.708" gradientUnits="userSpaceOnUse">
<stop stop-color="#CE9F41"/>
<stop offset="0.1229" stop-color="#D3AB43"/>
<stop offset="0.2514" stop-color="#F6ECDF"/>
<stop offset="0.3547" stop-color="#D3AB43"/>
<stop offset="0.5168" stop-color="#CE9F41"/>
<stop offset="0.6844" stop-color="#F6ECDF"/>
<stop offset="0.8464" stop-color="#CE9F41"/>
<stop offset="0.9888" stop-color="#CE9F41"/>
</linearGradient>
<linearGradient id="paint23_linear_845_16641" x1="119.981" y1="234.368" x2="240.396" y2="233.73" gradientUnits="userSpaceOnUse">
<stop stop-color="#CE9F41"/>
<stop offset="0.1229" stop-color="#D3AB43"/>
<stop offset="0.2514" stop-color="#F6ECDF"/>
<stop offset="0.3547" stop-color="#D3AB43"/>
<stop offset="0.5168" stop-color="#CE9F41"/>
<stop offset="0.6844" stop-color="#F6ECDF"/>
<stop offset="0.8464" stop-color="#CE9F41"/>
<stop offset="0.9888" stop-color="#CE9F41"/>
</linearGradient>
<linearGradient id="paint24_linear_845_16641" x1="119.981" y1="234.391" x2="240.396" y2="233.754" gradientUnits="userSpaceOnUse">
<stop stop-color="#CE9F41"/>
<stop offset="0.1229" stop-color="#D3AB43"/>
<stop offset="0.2514" stop-color="#F6ECDF"/>
<stop offset="0.3547" stop-color="#D3AB43"/>
<stop offset="0.5168" stop-color="#CE9F41"/>
<stop offset="0.6844" stop-color="#F6ECDF"/>
<stop offset="0.8464" stop-color="#CE9F41"/>
<stop offset="0.9888" stop-color="#CE9F41"/>
</linearGradient>
<linearGradient id="paint25_linear_845_16641" x1="119.981" y1="234.427" x2="240.398" y2="233.79" gradientUnits="userSpaceOnUse">
<stop stop-color="#CE9F41"/>
<stop offset="0.1229" stop-color="#D3AB43"/>
<stop offset="0.2514" stop-color="#F6ECDF"/>
<stop offset="0.3547" stop-color="#D3AB43"/>
<stop offset="0.5168" stop-color="#CE9F41"/>
<stop offset="0.6844" stop-color="#F6ECDF"/>
<stop offset="0.8464" stop-color="#CE9F41"/>
<stop offset="0.9888" stop-color="#CE9F41"/>
</linearGradient>
<linearGradient id="paint26_linear_845_16641" x1="119.981" y1="234.462" x2="240.397" y2="233.825" gradientUnits="userSpaceOnUse">
<stop stop-color="#CE9F41"/>
<stop offset="0.1229" stop-color="#D3AB43"/>
<stop offset="0.2514" stop-color="#F6ECDF"/>
<stop offset="0.3547" stop-color="#D3AB43"/>
<stop offset="0.5168" stop-color="#CE9F41"/>
<stop offset="0.6844" stop-color="#F6ECDF"/>
<stop offset="0.8464" stop-color="#CE9F41"/>
<stop offset="0.9888" stop-color="#CE9F41"/>
</linearGradient>
<linearGradient id="paint27_linear_845_16641" x1="119.982" y1="234.495" x2="240.398" y2="233.858" gradientUnits="userSpaceOnUse">
<stop stop-color="#CE9F41"/>
<stop offset="0.1229" stop-color="#D3AB43"/>
<stop offset="0.2514" stop-color="#F6ECDF"/>
<stop offset="0.3547" stop-color="#D3AB43"/>
<stop offset="0.5168" stop-color="#CE9F41"/>
<stop offset="0.6844" stop-color="#F6ECDF"/>
<stop offset="0.8464" stop-color="#CE9F41"/>
<stop offset="0.9888" stop-color="#CE9F41"/>
</linearGradient>
<linearGradient id="paint28_linear_845_16641" x1="119.982" y1="234.516" x2="240.398" y2="233.879" gradientUnits="userSpaceOnUse">
<stop stop-color="#CE9F41"/>
<stop offset="0.1229" stop-color="#D3AB43"/>
<stop offset="0.2514" stop-color="#F6ECDF"/>
<stop offset="0.3547" stop-color="#D3AB43"/>
<stop offset="0.5168" stop-color="#CE9F41"/>
<stop offset="0.6844" stop-color="#F6ECDF"/>
<stop offset="0.8464" stop-color="#CE9F41"/>
<stop offset="0.9888" stop-color="#CE9F41"/>
</linearGradient>
<linearGradient id="paint29_linear_845_16641" x1="119.983" y1="234.581" x2="240.399" y2="233.944" gradientUnits="userSpaceOnUse">
<stop stop-color="#CE9F41"/>
<stop offset="0.1229" stop-color="#D3AB43"/>
<stop offset="0.2514" stop-color="#F6ECDF"/>
<stop offset="0.3547" stop-color="#D3AB43"/>
<stop offset="0.5168" stop-color="#CE9F41"/>
<stop offset="0.6844" stop-color="#F6ECDF"/>
<stop offset="0.8464" stop-color="#CE9F41"/>
<stop offset="0.9888" stop-color="#CE9F41"/>
</linearGradient>
<linearGradient id="paint30_linear_845_16641" x1="119.982" y1="234.587" x2="240.398" y2="233.95" gradientUnits="userSpaceOnUse">
<stop stop-color="#CE9F41"/>
<stop offset="0.1229" stop-color="#D3AB43"/>
<stop offset="0.2514" stop-color="#F6ECDF"/>
<stop offset="0.3547" stop-color="#D3AB43"/>
<stop offset="0.5168" stop-color="#CE9F41"/>
<stop offset="0.6844" stop-color="#F6ECDF"/>
<stop offset="0.8464" stop-color="#CE9F41"/>
<stop offset="0.9888" stop-color="#CE9F41"/>
</linearGradient>
<linearGradient id="paint31_linear_845_16641" x1="119.982" y1="234.602" x2="240.398" y2="233.965" gradientUnits="userSpaceOnUse">
<stop stop-color="#CE9F41"/>
<stop offset="0.1229" stop-color="#D3AB43"/>
<stop offset="0.2514" stop-color="#F6ECDF"/>
<stop offset="0.3547" stop-color="#D3AB43"/>
<stop offset="0.5168" stop-color="#CE9F41"/>
<stop offset="0.6844" stop-color="#F6ECDF"/>
<stop offset="0.8464" stop-color="#CE9F41"/>
<stop offset="0.9888" stop-color="#CE9F41"/>
</linearGradient>
<linearGradient id="paint32_linear_845_16641" x1="119.982" y1="234.623" x2="240.398" y2="233.986" gradientUnits="userSpaceOnUse">
<stop stop-color="#CE9F41"/>
<stop offset="0.1229" stop-color="#D3AB43"/>
<stop offset="0.2514" stop-color="#F6ECDF"/>
<stop offset="0.3547" stop-color="#D3AB43"/>
<stop offset="0.5168" stop-color="#CE9F41"/>
<stop offset="0.6844" stop-color="#F6ECDF"/>
<stop offset="0.8464" stop-color="#CE9F41"/>
<stop offset="0.9888" stop-color="#CE9F41"/>
</linearGradient>
<linearGradient id="paint33_linear_845_16641" x1="121.644" y1="234.654" x2="242.06" y2="234.017" gradientUnits="userSpaceOnUse">
<stop stop-color="#CE9F41"/>
<stop offset="0.1229" stop-color="#D3AB43"/>
<stop offset="0.2514" stop-color="#F6ECDF"/>
<stop offset="0.3547" stop-color="#D3AB43"/>
<stop offset="0.5168" stop-color="#CE9F41"/>
<stop offset="0.6844" stop-color="#F6ECDF"/>
<stop offset="0.8464" stop-color="#CE9F41"/>
<stop offset="0.9888" stop-color="#CE9F41"/>
</linearGradient>
<linearGradient id="paint34_linear_845_16641" x1="118.319" y1="234.055" x2="238.735" y2="233.418" gradientUnits="userSpaceOnUse">
<stop stop-color="#CE9F41"/>
<stop offset="0.1229" stop-color="#D3AB43"/>
<stop offset="0.2514" stop-color="#F6ECDF"/>
<stop offset="0.3547" stop-color="#D3AB43"/>
<stop offset="0.5168" stop-color="#CE9F41"/>
<stop offset="0.6844" stop-color="#F6ECDF"/>
<stop offset="0.8464" stop-color="#CE9F41"/>
<stop offset="0.9888" stop-color="#CE9F41"/>
</linearGradient>
<linearGradient id="paint35_linear_845_16641" x1="96.0105" y1="278.828" x2="310.508" y2="278.828" gradientUnits="userSpaceOnUse">
<stop stop-color="#CE9F41"/>
<stop offset="0.1229" stop-color="#D3AB43"/>
<stop offset="0.2407" stop-color="#F6ECDF"/>
<stop offset="0.3209" stop-color="#D3AB43"/>
<stop offset="0.3863" stop-color="#AE782B"/>
<stop offset="0.5168" stop-color="#CE9F41"/>
<stop offset="0.6844" stop-color="#F6ECDF"/>
<stop offset="0.8464" stop-color="#CE9F41"/>
<stop offset="0.9888" stop-color="#CE9F41"/>
</linearGradient>
</defs>
</svg>
